# xmcd
#
# Track frame offsets: 
#        150
#        20502
#        41357
#        77040
#        113815
#        141352
#
# Disc length: 2191 seconds
#
# Revision: 8
# Processed by: cddbd v1.5.2PL0 Copyright (c) Steve Scherf et al.
# Submitted via: ExactAudioCopy v0.95b4
#
DISCID=46088d06
DTITLE=Ricky Martin - Maria  [CD Single)
DYEAR=1996
DGENRE=Latin House
TTITLE0=Maria (Spanglish Radio Edit)
TTITLE1=Maria (Spanish Radio Edit)
TTITLE2=Maria (Spanglish Extended)
TTITLE3=Maria (Spanish Extended)
TTITLE4=Maria (Spanglish Dub)
TTITLE5=Maria (Perc A Pella Mix)
EXTD=YEAR: 1996
EXTT0=
EXTT1=
EXTT2=
EXTT3=
EXTT4=
EXTT5=
PLAYORDER=
